<?xml version="1.0" encoding="UTF-8"?>
<svg xmlns="http://www.w3.org/2000/svg" xmlns:xlink="http://www.w3.org/1999/xlink" viewBox="0 0 64 64" width="64px" height="64px">
<g id="surface86747548">
<path style=" stroke:none;fill-rule:nonzero;fill:#d5cea6;fill-opacity:1;" d="M 53.332031 16 C 53.332031 16 47.21875 11.214844 40 10.667969 L 39.347656 11.96875 C 45.878906 13.566406 48.871094 15.855469 52 18.667969 C 46.605469 15.914062 41.28125 13.332031 32 13.332031 C 22.71875 13.332031 17.394531 15.914062 12 18.667969 C 15.128906 15.855469 18.691406 13.3125 24.652344 11.96875 L 24 10.667969 C 16.425781 11.382812 10.667969 16 10.667969 16 C 10.667969 16 3.839844 25.898438 2.667969 45.332031 C 9.550781 53.269531 20 53.332031 20 53.332031 L 22.183594 50.421875 C 18.476562 49.128906 14.285156 46.828125 10.667969 42.667969 C 14.984375 45.933594 21.5 49.332031 32 49.332031 C 42.5 49.332031 49.015625 45.933594 53.332031 42.667969 C 49.714844 46.828125 45.523438 49.128906 41.816406 50.421875 L 44 53.332031 C 44 53.332031 54.449219 53.269531 61.332031 45.332031 C 60.160156 25.898438 53.332031 16 53.332031 16 Z M 23.332031 40 C 20.757812 40 18.667969 37.613281 18.667969 34.667969 C 18.667969 31.722656 20.757812 29.332031 23.332031 29.332031 C 25.910156 29.332031 28 31.722656 28 34.667969 C 28 37.613281 25.910156 40 23.332031 40 Z M 40.667969 40 C 38.089844 40 36 37.613281 36 34.667969 C 36 31.722656 38.089844 29.332031 40.667969 29.332031 C 43.242188 29.332031 45.332031 31.722656 45.332031 34.667969 C 45.332031 37.613281 43.242188 40 40.667969 40 Z M 40.667969 40 "/>
</g>
</svg>
