<?xml version="1.0" encoding="UTF-8"?>
<svg xmlns="http://www.w3.org/2000/svg" xmlns:xlink="http://www.w3.org/1999/xlink" viewBox="0 0 64 64" width="64px" height="64px">
<g id="surface87041808">
<path style=" stroke:none; fill-rule:nonzero;fill:#d5cea6;fill-opacity:1;" d="M 11.226562 18.667969 L 11.296875 18.667969 C 15.015625 18.667969 17.332031 16 17.332031 12.667969 C 17.265625 9.261719 15.015625 6.667969 11.367188 6.667969 C 7.71875 6.667969 5.332031 9.261719 5.332031 12.667969 C 5.332031 16 7.648438 18.667969 11.226562 18.667969 Z M 5.332031 22.667969 L 17.332031 22.667969 L 17.332031 57.332031 L 5.332031 57.332031 Z M 58.667969 35.332031 C 58.667969 28.335938 52.996094 22.667969 46 22.667969 C 41.929688 22.667969 38.316406 24.59375 36 27.578125 L 36 22.667969 L 24 22.667969 L 24 57.332031 L 36 57.332031 L 36 37.332031 C 36 34.386719 38.386719 32 41.332031 32 C 44.277344 32 46.667969 34.386719 46.667969 37.332031 L 46.667969 57.332031 L 58.667969 57.332031 C 58.667969 57.332031 58.667969 37.273438 58.667969 35.332031 Z M 58.667969 35.332031 "/>
</g>
</svg>
